<svg xmlns="http://www.w3.org/2000/svg" version="1.1" xmlns:xlink="http://www.w3.org/1999/xlink" xmlns:svgjs="http://svgjs.dev/svgjs" width="1500" height="935" viewBox="0 0 1500 935"><g transform="matrix(1,0,0,1,-0.9090909090909918,0.3785425101214628)"><svg viewBox="0 0 396 247" data-background-color="#000000" preserveAspectRatio="xMidYMid meet" height="935" width="1500" xmlns="http://www.w3.org/2000/svg" xmlns:xlink="http://www.w3.org/1999/xlink"><g id="tight-bounds" transform="matrix(1,0,0,1,0.2400000000000091,-0.09999999999999432)"><svg viewBox="0 0 395.52 247.2" height="247.2" width="395.52"><g><svg></svg></g><g><svg viewBox="0 0 395.52 247.2" height="247.2" width="395.52"><g><path d="M55.039 247.2l26.403-45.732 3.301 0-24.662 42.716h275.358l-24.662-42.716 3.301 0 26.403 45.732zM197.76 0l26.403 45.732h-3.301l-23.102-40.014-23.102 40.014-3.301 0z" fill="#ffffff" fill-rule="nonzero" stroke="none" stroke-width="1" stroke-linecap="butt" stroke-linejoin="miter" stroke-miterlimit="10" stroke-dasharray="" stroke-dashoffset="0" font-family="none" font-weight="none" font-size="none" text-anchor="none" style="mix-blend-mode: normal" data-fill-palette-color="tertiary"></path></g><g transform="matrix(1,0,0,1,7.2206927162779095,67.97999999999999)"><svg viewBox="0 0 381.07861456744416 111.24" height="111.24" width="381.07861456744416"><g><svg viewBox="0 0 614.8141225906431 179.4693283290474" height="111.24" width="381.07861456744416"><g transform="matrix(1,0,0,1,219.2941225906432,24.80364812651814)"><svg viewBox="0 0 395.52 129.86203207601113" height="129.86203207601113" width="395.52"><g id="textblocktransform"><svg viewBox="0 0 395.52 129.86203207601113" height="129.86203207601113" width="395.52" id="textblock"><g><svg viewBox="0 0 395.52 78.11789637709389" height="78.11789637709389" width="395.52"><g transform="matrix(1,0,0,1,0,0)"><svg width="395.52" viewBox="0.78 -36.18 188 37.13" height="78.11789637709389" data-palette-color="url(#6d6ddc96-34af-459a-98a4-d0d58f33d887)"><g class="wordmark-text-0" data-fill-palette-color="primary" id="text-0"></g></svg></g></svg></g><g transform="matrix(1,0,0,1,0,96.5596568822127)"><svg viewBox="0 0 281.808 33.30237519379845" height="33.30237519379845" width="281.808"><g transform="matrix(1,0,0,1,0,0)"><svg width="281.808" viewBox="0.45 -29.75 290.22 34.3" height="33.30237519379845" data-palette-color="#00ff00"><path d="M13.55-2.9L13.55-2.9Q13.7-2.9 13.7-2.6 13.7-2.3 13-1.6L13-1.6 12.5-0.85Q11.15 1.2 10.53 1.55 9.9 1.9 9.53 1.9 9.15 1.9 8.38 1.73 7.6 1.55 7.58 1.35 7.55 1.15 7.55 0.5 7.55-0.15 8.5-2.63 9.45-5.1 10.7-7.5L10.7-7.5Q13-12 15.3-16.2L15.3-16.2Q15.75-17.05 15.75-17.53 15.75-18 15.6-18.25L15.6-18.25Q15.9-19.7 18.07-21.95 20.25-24.2 22.05-24.2L22.05-24.2Q22.85-24.2 24-23.58 25.15-22.95 25-21.95L25-21.95Q24.65-22.2 24.35-22.2L24.35-22.2Q22.25-22.2 19.1-18.1L19.1-18.1Q13.85-11.3 10.2-2.5L10.2-2.5Q9.8-1.45 9.8-1.07 9.8-0.7 9.8-0.6L9.8-0.6Q10-0.1 10.63-0.3 11.25-0.5 11.8-1.2L11.8-1.2Q13.1-2.9 13.55-2.9ZM32.6-24.45L32.6-24.45Q33-25.1 33.8-25.95L33.8-25.95Q31.6-26 27.2-26.35L27.2-26.35Q21.75-26.8 19.75-26.8 17.75-26.8 14.2-26.45L14.2-26.45Q9.45-25.8 6.03-23.83 2.6-21.85 1.95-18.85L1.95-18.85Q1.85-18.55 1.85-18.13 1.85-17.7 2.13-17.1 2.4-16.5 2.8-16.15 3.2-15.8 4.03-15.3 4.85-14.8 5.13-14.58 5.4-14.35 5.23-14.2 5.05-14.05 4.88-14.05 4.7-14.05 4.5-14.1L4.5-14.1Q2.8-14.6 1.63-15.98 0.45-17.35 0.45-18.28 0.45-19.2 0.7-19.85L0.7-19.85Q0.7-20.4 0.75-20.65L0.75-20.65Q1.5-24.2 5.3-26.15L5.3-26.15Q9.85-28.5 16.5-28.5L16.5-28.5Q20.55-28.5 27.13-27.6 33.7-26.7 34.45-26.7L34.45-26.7Q35.8-28.2 36.5-28.25L36.5-28.25Q36.75-28.3 37.2-28.3 37.65-28.3 38-27.98 38.35-27.65 38.35-27.3 38.35-26.95 38.05-26.6 37.75-26.25 36.83-25.58 35.9-24.9 35.35-24.35L35.35-24.35Q32.75-21.75 32.75-19.8L32.75-19.8Q32.75-18.95 33.1-18.43 33.45-17.9 33.05-17.68 32.65-17.45 32.2-18L32.2-18Q31.7-18.4 31.7-20.55 31.7-22.7 32.6-24.45ZM25.4 1.25L25.4 1.25Q22.85 1.25 22.85-1.83 22.85-4.9 27.25-9.4L27.25-9.4Q27.6-9.75 27.75-9.95L27.75-9.95 28.1-10.45Q28.8-11.4 28.75-11.65L28.75-11.65 28.6-12.1Q28.4-12.7 26.95-12.98 25.5-13.25 24.6-13.25L24.6-13.25Q20.1-6.9 19.4-6 18.7-5.1 18.45-5.25 18.2-5.4 18.2-5.6 18.2-5.8 18.5-6.2L18.5-6.2Q21.2-9.5 23.15-13.25L23.15-13.25Q22.55-13.35 22.25-13.68 21.95-14 22.2-14.78 22.45-15.55 23.72-16.85 25-18.15 25.95-18.6 26.9-19.05 27.15-19.15 27.4-19.25 27.7-19.25L27.7-19.25Q28.3-19.25 27.3-17.45L27.3-17.45 25.35-14.35Q27.6-14.2 29.2-14.2L29.2-14.2 30.95-14.25Q31.8-14.25 32.2-14.03 32.6-13.8 32.4-13.25L32.4-13.25Q32.05-12.3 30.65-10.7L30.65-10.7Q27.65-7.2 26.15-3.25L26.15-3.25Q25.8-2.3 25.8-1.6L25.8-1.6Q25.8-0.15 26.85-0.15L26.85-0.15Q27.2-0.15 28.17-0.7 29.15-1.25 31.45-3.33 33.75-5.4 35.15-7.4L35.15-7.4Q35.35-7.65 35.62-7.53 35.9-7.4 35.9-7.28 35.9-7.15 35.8-7L35.8-7Q35.05-5.65 33.1-3.55 31.15-1.45 29.3-0.15L29.3-0.15Q27.5 1.25 25.4 1.25ZM37.05 0.55L37.05 0.55Q36.25 0.55 35.32 0.08 34.4-0.4 33.75-1.28 33.09-2.15 33.09-3.15 33.09-4.15 33.55-5.05L33.55-5.05Q34.55-7.15 36.77-9.13 39-11.1 41.4-12.5 43.8-13.9 45.2-14.25 46.59-14.6 47.92-14.6 49.25-14.6 50.2-13.93 51.15-13.25 51.15-12.5L51.15-12.5Q51.15-12.25 51.09-12.2 51.05-12.15 50.84-12.25L50.84-12.25Q50.25-13.2 48.37-13.2 46.5-13.2 44.12-11.98 41.75-10.75 39.65-8.9L39.65-8.9Q37.9-7.25 36.57-5.18 35.25-3.1 35.25-2.15L35.25-2.15Q35.25-0.3 36.3-0.3 37.34-0.3 39.5-2L39.5-2Q43.05-5 44.34-6.4L44.34-6.4Q48.95-11.35 49.3-11.35L49.3-11.35Q49.9-11.35 50.75-11 51.59-10.65 51.3-10.15L51.3-10.15Q48.75-6.55 48.3-2.9L48.3-2.9Q48.25-2.45 48.25-1.75 48.25-1.05 48.65-0.6L48.65-0.6Q49.4 0.2 50.7-0.5 52-1.2 54.32-3.3 56.65-5.4 58.05-7.4L58.05-7.4Q58.25-7.65 58.5-7.53 58.75-7.4 58.75-7.3L58.75-7.3Q58.75-6.55 56.37-4.03 54-1.5 52.75-0.6L52.75-0.6Q50.4 1.15 48.4 1.15L48.4 1.15Q46.5 1.15 45.84-0.75L45.84-0.75Q45.7-1.35 45.7-2.1L45.7-2.1Q45.7-4.35 46.65-6.85L46.65-6.85Q46.45-6.75 44.8-4.85 43.15-2.95 40.97-1.2 38.8 0.55 37.05 0.55ZM59.99-11.15L59.99-11.15Q59.99-13.55 58.59-13.55L58.59-13.55Q58.29-13.55 57.97-13.48 57.64-13.4 57.64-13.6 57.64-13.8 57.94-14.1L57.94-14.1Q58.24-14.35 59.99-14.5L59.99-14.5Q62.09-14.5 62.62-13.9 63.14-13.3 63.14-12.7 63.14-12.1 62.22-9.73 61.29-7.35 61.24-7.25L61.24-7.25Q59.74-2.75 59.89-1.6L59.89-1.6Q64.39-7.65 65.79-9.15L65.79-9.15Q68.74-12.4 69.99-13.6L69.99-13.6Q72.89-16.3 75.09-17.25L75.09-17.25Q75.74-17.5 76.24-17.5L76.24-17.5Q77.89-17.5 78.49-16.5L78.49-16.5Q78.69-16.25 78.69-16.03 78.69-15.8 78.54-15.5 78.39-15.2 77.99-15.53 77.59-15.85 76.19-15.85L76.19-15.85Q73.89-15.85 68.49-10.45L68.49-10.45Q65.24-7.1 62.52-3.45 59.79 0.2 59.59 1.75L59.59 1.75Q59.59 2.15 58.84 2.15 58.09 2.15 57.72 1.53 57.34 0.9 57.34 0.48 57.34 0.05 57.39-0.28 57.44-0.6 58.39-3.95 59.34-7.3 59.59-8.4L59.59-8.4Q58.99-7.4 57.94-5.95L57.94-5.95Q57.59-5.55 57.37-5.73 57.14-5.9 57.14-6.05 57.14-6.2 57.24-6.4L57.24-6.4Q59.34-9.25 59.99-11.15ZM84.69-14.55L84.69-14.55Q87.39-14.55 87.39-11.95L87.39-11.95Q87.39-10.6 86.64-9.75L86.64-9.75Q85.39-7.9 82.59-6.53 79.79-5.15 77.84-5L77.84-5Q77.14-4.95 77.09-5.4L77.09-5.4Q77.04-5.6 77.22-5.65 77.39-5.7 77.49-5.7L77.49-5.7Q78.64-5.8 80.44-6.8L80.44-6.8Q83.79-8.6 85.34-10.5L85.34-10.5Q85.99-11.4 85.99-12.23 85.99-13.05 85.19-13.05L85.19-13.05Q84.54-13.05 83.44-12.5L83.44-12.5Q81.09-11.4 78.49-8.68 75.89-5.95 75.09-3.35L75.09-3.35Q74.84-2.55 74.84-1.78 74.84-1 75.49-0.3 76.14 0.4 77.49 0.4L77.49 0.4Q78.99 0.4 80.94-0.4L80.94-0.4Q86.59-2.7 89.64-7.35L89.64-7.35Q89.94-7.75 90.19-7.5L90.19-7.5Q90.39-7.4 90.39-7.25 90.39-7.1 90.24-6.9L90.24-6.9Q88.74-4.4 86.44-2.45L86.44-2.45Q81.99 1.35 77.79 1.35L77.79 1.35Q74.19 1.35 72.74-0.8L72.74-0.8Q72.19-1.65 72.19-2.85 72.19-4.05 72.84-5.7L72.84-5.7Q74.09-8.55 78.19-11.55 82.29-14.55 84.69-14.55ZM106.44-25.5L106.44-25.5Q107.04-26.6 107.04-27.2L107.04-27.2Q107.04-28.25 106.19-28.25L106.19-28.25Q105.49-28.25 104.44-27.45L104.44-27.45Q100.44-24.35 96.69-17.65L96.69-17.65Q93.69-12.25 92.29-8.4L92.29-8.4Q95.74-10.75 100.01-16.05 104.29-21.35 106.44-25.5ZM91.54-6.4L91.54-6.4Q90.94-4.7 90.89-4.13 90.84-3.55 90.84-2.58 90.84-1.6 91.34-0.8L91.34-0.8Q92.19 0.55 94.19-0.6L94.19-0.6Q95.69-1.4 97.99-3.53 100.29-5.65 101.54-7.4L101.54-7.4Q101.64-7.55 101.84-7.55L101.84-7.55Q102.29-7.55 102.09-6.9L102.09-6.9Q101.34-5.55 99.31-3.45 97.29-1.35 95.64-0.13 93.99 1.1 92.34 1.1L92.34 1.1Q88.54 1.1 88.54-2.6L88.54-2.6Q88.54-2.75 88.54-2.9L88.54-2.9Q88.74-6.4 92.09-13.48 95.44-20.55 98.14-24.15L98.14-24.15 99.69-26.1Q100.24-26.75 101.29-27.7L101.29-27.7Q103.29-29.6 105.41-29.6 107.54-29.6 108.29-28.3L108.29-28.3Q108.54-27.85 108.54-27 108.54-26.15 107.79-24.6L107.79-24.6Q102.64-15.65 91.54-6.4ZM114.38 4.55L114.38 4.55Q110.43 4.55 110.43 1.75L110.43 1.75Q110.43-0.05 111.86-2.48 113.28-4.9 114.63-6.98 115.98-9.05 117.88-11.88 119.78-14.7 120.58-15.9L120.58-15.9Q125.93-23.55 127.23-26.15L127.23-26.15Q126.08-26.25 124.38-26.25L124.38-26.25Q118.43-26.25 114.48-23.9L114.48-23.9Q112.03-22.45 112.03-20.3L112.03-20.3Q112.03-19.6 112.43-19 112.83-18.4 113.23-18.15L113.23-18.15Q114.03-17.65 115.03-17.15L115.03-17.15Q115.63-16.7 115.23-16.6L115.23-16.6Q115.08-16.6 114.88-16.65L114.88-16.65Q113.73-16.9 112.38-18.1 111.03-19.3 110.98-20.85L110.98-20.85Q110.78-21.35 110.78-21.7L110.78-21.7Q110.78-23.85 112.46-25.43 114.13-27 116.78-27.6L116.78-27.6Q120.38-28.4 123.21-28.4 126.03-28.4 127.98-27.95L127.98-27.95Q128.13-28.7 127.93-29.15 127.73-29.6 128.28-29.7L128.28-29.7Q128.38-29.75 128.43-29.75L128.43-29.75Q128.98-29.75 129.28-28.95L129.28-28.95Q129.38-28.4 129.23-27.65L129.23-27.65Q130.13-27.4 131.06-27.03 131.98-26.65 132.43-25.93 132.88-25.2 132.13-25.25L132.13-25.25Q131.68-25.25 130.71-25.58 129.73-25.9 128.73-26L128.73-26Q127.18-21.5 122.98-15.25L122.98-15.25Q113.93-1.9 113.93 1.8L113.93 1.8Q113.93 3.45 115.53 3.45L115.53 3.45Q118.03 3.45 123.58-0.25L123.58-0.25Q132.13-6.2 138.08-14.6L138.08-14.6Q138.03-16 138.03-18 138.03-20 138.33-21.95L138.33-21.95Q138.48-23 139.46-23.9 140.43-24.8 140.93-24.8L140.93-24.8Q141.58-24.8 141.78-23.65L141.78-23.65 141.88-22.75Q141.88-22.3 141.88-21.85L141.88-21.85Q141.88-18 140.38-14.9L140.38-14.9Q140.38-14.7 140.38-14.45L140.38-14.45Q140.38-8.85 142.86-4.35 145.33 0.15 148.58 0.15L148.58 0.15Q151.38 0.15 153.53-2.75L153.53-2.75Q157.08-7.6 157.08-14.6L157.08-14.6Q157.08-20.95 154.28-23.95L154.28-23.95Q152.63-25.7 150.33-25.7L150.33-25.7Q148.43-25.7 147.08-24.7L147.08-24.7Q146.53-24.35 146.28-24.75 146.03-25.15 146.33-25.4L146.33-25.4Q148.98-27.35 151.38-27.35 153.78-27.35 155.33-26.25L155.33-26.25Q159.18-23.75 159.18-16.4L159.18-16.4Q159.18-13.25 158.28-10L158.28-10Q156.98-5.25 153.93-1.6 150.88 2.05 147.23 2.05L147.23 2.05Q147.18 2.05 147.13 2.05L147.13 2.05Q143.18 2.05 140.56-1.9 137.93-5.85 137.93-10.75L137.93-10.75Q137.93-11.35 137.98-12L137.98-12Q135.53-8.9 131.81-5.38 128.08-1.85 124.83 0.4L124.83 0.4Q119.23 4.55 114.38 4.55ZM167.08-13.85L167.08-13.85Q168.33-13.85 168.58-13.05L168.58-13.05Q168.68-12.6 168.46-12.18 168.23-11.75 168.13-11.5 168.03-11.25 167.98-11.1L167.98-11.1Q167.73-10.6 167.48-10.15L167.48-10.15Q164.63-4.45 164.48-2.9L164.48-2.9Q164.43-2.45 164.43-1.75 164.43-1.05 164.83-0.6L164.83-0.6Q165.53 0.2 166.83-0.5 168.13-1.2 170.46-3.3 172.78-5.4 174.23-7.4L174.23-7.4Q174.43-7.65 174.68-7.53 174.93-7.4 174.93-7.28 174.93-7.15 174.83-7L174.83-7Q174.08-5.65 172.13-3.55L172.13-3.55Q168.93-0.1 166.78 0.7L166.78 0.7Q165.53 1.15 164.68 1.15L164.68 1.15Q162.68 1.15 162.03-0.75L162.03-0.75Q161.93-1.1 161.93-1.6L161.93-1.6Q161.93-3.35 163.53-6.9L163.53-6.9Q163.28-6.35 161.58-4.4L161.58-4.4Q161.13-3.9 160.88-4.4L160.88-4.4Q160.83-4.5 160.83-4.67 160.83-4.85 161.03-5.1L161.03-5.1Q163.48-8.15 164.88-10.25L164.88-10.25Q164.78-10.5 164.98-10.9L164.98-10.9Q165.98-13.7 166.73-13.85L166.73-13.85Q166.88-13.85 167.08-13.85ZM171.03-20.5L171.03-20.5 170.63-18.9Q170.63-18.45 169.98-17.45 169.33-16.45 168.98-16.45L168.98-16.45Q166.83-16.45 166.83-17.5L166.83-17.5Q166.83-17.7 168.98-19.35L168.98-19.35 169.83-20Q170.63-20.7 170.83-20.7 171.03-20.7 171.03-20.5ZM180.93-13.95L181.58-14Q185.43-14.35 186.25-14.35 187.08-14.35 187.08-14.1L187.08-14.1Q187.08-13.8 185.9-13.48 184.73-13.15 180.18-12.65L180.18-12.65Q179.93-12.2 179.58-11.6L179.58-11.6Q178.83-10.4 178.78-10.15L178.78-10.15Q175.93-4.45 175.78-2.9L175.78-2.9Q175.73-2.45 175.73-1.75 175.73-1.05 176.13-0.6L176.13-0.6Q176.83 0.2 178.13-0.5 179.43-1.2 181.75-3.3 184.08-5.4 185.53-7.4L185.53-7.4Q185.73-7.65 186.03-7.5L186.03-7.5Q186.78-7.15 183.43-3.55L183.43-3.55Q180.23-0.1 178.08 0.7L178.08 0.7Q176.83 1.15 175.98 1.15L175.98 1.15Q173.98 1.15 173.33-0.75L173.33-0.75Q173.23-1.1 173.23-1.6L173.23-1.6Q173.23-3.35 174.83-6.9L174.83-6.9Q174.58-6.35 172.88-4.4L172.88-4.4Q172.43-3.9 172.18-4.4L172.18-4.4Q172.13-4.5 172.13-4.67 172.13-4.85 172.33-5.1L172.33-5.1Q174.78-8.15 176.18-10.25L176.18-10.25Q176.18-10.3 177.28-12.35L177.28-12.35Q176.78-12.25 176.25-12.25 175.73-12.25 175.48-12.58 175.23-12.9 175.43-13.35L175.43-13.35Q175.78-14.15 178.08-14.25L178.08-14.25Q178.13-14.35 178.28-14.35L178.28-14.35 180.78-19Q180.98-19.4 181.23-19.83 181.48-20.25 181.6-20.48 181.73-20.7 181.88-20.95 182.03-21.2 182.13-21.3 182.23-21.4 182.33-21.5L182.33-21.5Q182.53-21.8 183.5-21.8 184.48-21.8 184.83-21.25L184.83-21.25Q184.98-21.05 184.98-20.58 184.98-20.1 184.63-19.53 184.28-18.95 183.88-18.7 183.48-18.45 183.33-18.15L183.33-18.15 180.93-13.95ZM202.03-29.25L202.03-29.25Q202.93-29.6 203.58-29.6L203.58-29.6Q205.78-29.6 206.48-28.4L206.48-28.4Q206.88-27.8 206.88-27.35L206.88-27.35Q206.88-23.95 201.18-18.8L201.18-18.8Q196.13-14.35 191.88-11.15L191.88-11.15Q190.48-8 188.98-3.4L188.98-3.4Q190.78-5.6 193.53-8.5L193.53-8.5Q199.08-14.25 201.28-14.25L201.28-14.25Q202.38-14.25 202.43-13.15L202.43-13.15Q202.53-12 201.95-10.95 201.38-9.9 200.88-9L200.88-9Q198.53-5.1 198.53-2.05L198.53-2.05Q198.53-1.05 198.93-0.6L198.93-0.6Q199.63 0.2 200.93-0.5 202.23-1.2 204.55-3.3 206.88-5.4 208.33-7.4L208.33-7.4Q208.58-7.65 208.8-7.53 209.03-7.4 209.03-7.28 209.03-7.15 208.93-7L208.93-7Q208.18-5.65 206.23-3.58 204.28-1.5 203.08-0.6L203.08-0.6Q200.78 1.15 198.68 1.15L198.68 1.15Q196.78 1.15 196.13-0.75L196.13-0.75Q195.98-1.2 195.98-1.83 195.98-2.45 196.08-3.15L196.08-3.15Q196.33-5.25 198.73-9.7L198.73-9.7Q199.23-10.6 199.23-10.98 199.23-11.35 198.83-11.35L198.83-11.35Q198.03-11.35 195.73-9.35L195.73-9.35Q194.18-7.9 191.15-3.88 188.13 0.15 187.73 0.4L187.73 0.4Q185.93 1.3 185.5 1.3 185.08 1.3 185.03 1.18 184.98 1.05 185.08 0.85 185.18 0.65 185.88-1.35L185.88-1.35Q188.23-8 189.08-10.15L189.08-10.15Q187.43-8.05 184.98-5.4L184.98-5.4Q184.58-5 184.58-5.58 184.58-6.15 185.03-6.75 185.48-7.35 186.9-9.08 188.33-10.8 188.93-11.65L188.93-11.65Q188.48-11.9 188.45-12.35 188.43-12.8 188.75-12.98 189.08-13.15 189.83-12.85L189.83-12.85Q190.33-13.55 190.73-14.4L190.73-14.4Q196.68-27.2 202.03-29.25ZM204.83-25.5L204.83-25.5Q205.48-26.7 205.48-27.53 205.48-28.35 204.75-28.35 204.03-28.35 202.83-27.45L202.83-27.45Q197.33-23.25 192.88-13.4L192.88-13.4Q196.13-15.5 199.68-19 203.23-22.5 204.83-25.5ZM227.22-4.05L227.22-4.05Q222.72 4.4 218.72 4.4L218.72 4.4Q216.17 4.4 216.17 1.8L216.17 1.8Q216.17 0.25 217.37-1.65L217.37-1.65Q219.42-4.85 223.75-9.53 228.07-14.2 231.07-16.95L231.07-16.95 232.97-23.4Q230.47-21.05 226.47-20.65L226.47-20.65Q225.97-20.6 225.95-20.95 225.92-21.3 226.37-21.4L226.37-21.4 226.57-21.45Q228.72-21.65 231-23.7 233.27-25.75 234.42-28.4L234.42-28.4Q234.62-29.05 236.17-29.03 237.72-29 237.67-28.4L237.67-28.4 234.22-19.85Q241.02-25.6 243.97-25.75L243.97-25.75Q244.32-25.75 244.67-25.75L244.67-25.75Q248.62-25.75 250.12-23.15L250.12-23.15Q251.42-20.95 251.42-18L251.42-18Q251.42-13.6 248.72-5.4L248.72-5.4Q248.27-3.95 248.35-3.93 248.42-3.9 248.62-4.23 248.82-4.55 249.25-5.2 249.67-5.85 251.27-8.5L251.27-8.5Q257.02-18.15 262.97-24.6L262.97-24.6Q264.92-26.65 266.87-26.65L266.87-26.65Q268.02-26.65 268.62-25.85 269.22-25.05 269.22-24.1 269.22-23.15 268.8-21.45 268.37-19.75 266.22-14.35L266.22-14.35Q263.57-7.75 263.57-3.55L263.57-3.55Q263.57-0.3 265.37-0.3L265.37-0.3Q266.67-0.3 268.82-1.95L268.82-1.95Q272.12-4.7 274.12-7.4L274.12-7.4Q274.37-7.75 274.6-7.55 274.82-7.35 274.82-7.23 274.82-7.1 274.72-7L274.72-7Q273.77-5.5 271.72-3.4L271.72-3.4Q268.37 0.15 266.32 0.8L266.32 0.8Q265.32 1.15 264.37 1.15L264.37 1.15Q261.07 1.1 261.07-3.6L261.07-3.6Q261.07-6.05 261.67-8.35 262.27-10.65 262.65-11.9 263.02-13.15 263.62-14.83 264.22-16.5 264.62-17.4L264.62-17.4Q265.92-20.65 266.22-21.45 266.52-22.25 266.52-22.83 266.52-23.4 266.22-23.63 265.92-23.85 265.42-23.85 264.92-23.85 263.87-22.95L263.87-22.95Q260.02-19.65 255.2-12.55 250.37-5.45 248.42-1.4L248.42-1.4Q248.02-0.55 247.62-0.55 247.22-0.55 246.77-1.28 246.32-2 246.32-2.33 246.32-2.65 246.37-2.75L246.37-2.75Q247.67-6.05 248.25-9.8 248.82-13.55 248.82-15.95L248.82-15.95Q248.82-24.4 245.17-24.4L245.17-24.4Q241.77-24.4 232.82-16.2L232.82-16.2Q232.37-14.9 230.87-11.5L230.87-11.5Q228.82-7.05 227.22-4.05ZM218.87 2.7L218.87 2.7Q221.97 2.7 226.47-5.95L226.47-5.95Q228.97-10.75 230.07-13.75L230.07-13.75Q227.42-11.25 224.22-7.63 221.02-4 219.67-2.2L219.67-2.2Q217.92 0.15 217.92 1.43 217.92 2.7 218.87 2.7ZM284.97-14.55L284.97-14.55Q287.67-14.55 287.67-11.95L287.67-11.95Q287.67-10.6 286.92-9.75L286.92-9.75Q285.67-7.9 282.87-6.53 280.07-5.15 278.12-5L278.12-5Q277.42-4.95 277.37-5.4L277.37-5.4Q277.32-5.6 277.49-5.65 277.67-5.7 277.77-5.7L277.77-5.7Q278.92-5.8 280.72-6.8L280.72-6.8Q284.07-8.6 285.62-10.5L285.62-10.5Q286.27-11.4 286.27-12.23 286.27-13.05 285.47-13.05L285.47-13.05Q284.82-13.05 283.72-12.5L283.72-12.5Q281.37-11.4 278.77-8.68 276.17-5.95 275.37-3.35L275.37-3.35Q275.12-2.55 275.12-1.78 275.12-1 275.77-0.3 276.42 0.4 277.77 0.4L277.77 0.4Q279.27 0.4 281.22-0.4L281.22-0.4Q286.87-2.7 289.92-7.35L289.92-7.35Q290.22-7.75 290.47-7.5L290.47-7.5Q290.67-7.4 290.67-7.25 290.67-7.1 290.52-6.9L290.52-6.9Q289.02-4.4 286.72-2.45L286.72-2.45Q282.27 1.35 278.07 1.35L278.07 1.35Q274.47 1.35 273.02-0.8L273.02-0.8Q272.47-1.65 272.47-2.85 272.47-4.05 273.12-5.7L273.12-5.7Q274.37-8.55 278.47-11.55 282.57-14.55 284.97-14.55Z" opacity="1" transform="matrix(1,0,0,1,0,0)" fill="#00ff00" class="slogan-text-1" data-fill-palette-color="secondary" id="text-1"></path></svg></g></svg></g></svg></g></svg></g><g><svg viewBox="0 0 200.8523620855244 179.4693283290474" height="179.4693283290474" width="200.8523620855244"><g><svg xmlns="http://www.w3.org/2000/svg" xmlns:xlink="http://www.w3.org/1999/xlink" version="1.1" x="0" y="0" viewBox="2.7858219717251416 5.816 94.21417802827486 84.184" enable-background="new 0 0 100 100" xml:space="preserve" height="179.4693283290474" width="200.8523620855244" class="icon-icon-0" data-fill-palette-color="accent" id="icon-0"><circle fill="#00ff00" cx="25.619" cy="49.81" r="4.2" data-fill-palette-color="accent"></circle><path fill="#00ff00" d="M10.707 68.467c-0.323 0.559-0.131 1.274 0.428 1.599l5.474 3.16c0.56 0.323 1.276 0.131 1.599-0.429l8.778-15.204c0.323-0.561 0.131-1.276-0.429-1.6l-5.474-3.16c-0.56-0.323-1.276-0.132-1.598 0.429L10.707 68.467z" data-fill-palette-color="accent"></path><path fill="#00ff00" d="M27 65.269C27 66.225 26.414 67 25.691 67h-1.383C23.586 67 23 66.225 23 65.269v-6.537C23 57.775 23.586 57 24.309 57h1.383C26.414 57 27 57.775 27 58.731V65.269z" data-fill-palette-color="accent"></path><path fill="#00ff00" d="M25.233 67.454c-1.026-0.009-1.854-0.602-1.848-1.323l0.017-2.095c0.005-0.723 0.842-1.302 1.868-1.294l7.804 0.062c1.026 0.009 1.853 0.601 1.847 1.324l-0.017 2.094c-0.006 0.723-0.842 1.303-1.868 1.294L25.233 67.454z" data-fill-palette-color="accent"></path><path fill="#00ff00" d="M7.042 86.273c-0.361 0.628-1.162 0.842-1.788 0.48l-1.814-1.047c-0.625-0.362-0.84-1.162-0.479-1.789l8.247-14.284c0.361-0.626 1.162-0.841 1.788-0.479l1.814 1.047c0.626 0.36 0.84 1.162 0.479 1.788L7.042 86.273z" data-fill-palette-color="accent"></path><path fill="#00ff00" d="M23.928 78.286c0.348 0.349 1.044 0.216 1.556-0.296l1.481-1.48c0.511-0.511 0.644-1.208 0.296-1.556l-7.936-7.936c-0.347-0.348-1.043-0.215-1.555 0.296l-1.481 1.48c-0.511 0.512-0.644 1.208-0.296 1.557L23.928 78.286z" data-fill-palette-color="accent"></path><path fill="#00ff00" d="M28.407 85.792c0.059 0.678-0.446 1.275-1.128 1.335l-2.224 0.195c-0.683 0.059-1.284-0.441-1.343-1.12l-0.88-10.063c-0.06-0.679 0.446-1.276 1.128-1.336l2.224-0.194c0.682-0.06 1.284 0.441 1.342 1.119L28.407 85.792z" data-fill-palette-color="accent"></path><path fill="#00ff00" d="M5.366 58.619c-0.361 0.626-0.147 1.427 0.479 1.788l4.988 2.88c0.625 0.361 1.426 0.147 1.788-0.479l6.545-11.337c0.361-0.626 0.147-1.427-0.479-1.788L13.7 46.803c-0.625-0.36-1.427-0.146-1.789 0.48L5.366 58.619z" data-fill-palette-color="accent"></path><polygon fill="#00ff00" points="25.106,89.078 43.541,46.064 59.824,43.914 63.817,19.028 67.813,26.094 68.733,5.816   85.018,43.914 87.168,32.854 97,90 " data-fill-palette-color="accent"></polygon></svg></g></svg></g></svg></g></svg></g></svg></g><defs></defs><mask id="5c588f0b-a937-4723-a1b7-de2dfb0c8e7b"><g id="SvgjsG1005"><svg viewBox="0 0 395.52 247.2" height="247.2" width="395.52"><g><svg></svg></g><g><svg viewBox="0 0 395.52 247.2" height="247.2" width="395.52"><g></g><g transform="matrix(1,0,0,1,7.2206927162779095,67.97999999999999)"><svg viewBox="0 0 381.07861456744416 111.24" height="111.24" width="381.07861456744416"><g><svg viewBox="0 0 614.8141225906431 179.4693283290474" height="111.24" width="381.07861456744416"><g transform="matrix(1,0,0,1,219.2941225906432,24.80364812651814)"><svg viewBox="0 0 395.52 129.86203207601113" height="129.86203207601113" width="395.52"><g id="SvgjsG1004"><svg viewBox="0 0 395.52 129.86203207601113" height="129.86203207601113" width="395.52" id="SvgjsSvg1003"><g><svg viewBox="0 0 395.52 78.11789637709389" height="78.11789637709389" width="395.52"><g transform="matrix(1,0,0,1,0,0)"><svg width="395.52" viewBox="0.78 -36.18 188 37.13" height="78.11789637709389" data-palette-color="url(#6d6ddc96-34af-459a-98a4-d0d58f33d887)"><g class="wordmark-text-0" data-fill-palette-color="primary" id="SvgjsG1002"><path d="M23.12-11.87L34.18-35.16 35.94-35.16 24.88-11.87 24.88 0 23.12 0 23.12-11.87ZM19.6-11.87L30.66-35.16 32.42-35.16 21.36-11.87 21.36 0 19.6 0 19.6-11.87ZM16.09-11.87L27.15-35.16 28.91-35.16 17.85-11.87 17.85 0 16.09 0 16.09-11.87ZM13.43-13.65L23.63-35.16 25.39-35.16 14.33-11.87 14.33 0 12.57 0 12.57-11.87 0.78-35.16 2.54-35.16 13.43-13.65ZM13.92-16.65L4.32-35.16 6.08-35.16 14.79-18.58 13.92-16.65ZM15.65-20.51L7.84-35.16 9.62-35.16 16.55-22.44 15.65-20.51ZM17.43-24.34L11.4-35.16 13.16-35.16 18.31-26.27 17.43-24.34ZM63.89 0L63.89-17.33Q63.89-20.46 61.96-22.17 60.03-23.88 56.86-23.88L56.86-23.88Q54.17-23.88 52.24-22.02 50.31-20.17 50.31-17.58L50.31-17.58Q50.31-16.11 50.71-14.95 51.1-13.79 51.77-13.02 52.44-12.26 53.37-11.76 54.29-11.25 55.31-11.04 56.32-10.82 57.47-10.82L57.47-10.82Q60.25-10.82 62.55-12.18L62.55-12.18 62.55-10.42Q60.18-9.18 57.44-9.18L57.44-9.18Q55.69-9.18 54.14-9.66 52.59-10.13 51.32-11.1 50.05-12.06 49.3-13.73 48.56-15.41 48.56-17.58L48.56-17.58Q48.56-20.95 50.93-23.29 53.29-25.63 56.86-25.63L56.86-25.63Q60.79-25.63 63.22-23.43 65.65-21.22 65.65-17.33L65.65-17.33 65.65 0 63.89 0ZM69.16-17.33L69.16-17.33 69.16 0 67.4 0 67.4-17.33Q67.4-21.95 64.45-24.67 61.5-27.39 56.86-27.39L56.86-27.39Q52.56-27.39 49.68-24.54 46.8-21.68 46.8-17.58L46.8-17.58Q46.8-15.09 47.67-13.11 48.53-11.13 50.02-9.94 51.51-8.74 53.35-8.12 55.2-7.5 57.25-7.5L57.25-7.5Q60.03-7.5 62.55-8.79L62.55-8.79 62.55-6.93Q59.91-5.83 57.22-5.83L57.22-5.83Q54.81-5.83 52.63-6.58 50.46-7.32 48.75-8.75 47.04-10.18 46.04-12.46 45.04-14.75 45.04-17.58L45.04-17.58Q45.04-22.39 48.45-25.77 51.85-29.15 56.86-29.15L56.86-29.15Q60.37-29.15 63.16-27.72 65.94-26.29 67.55-23.58 69.16-20.87 69.16-17.33ZM72.68-17.33L72.68-17.33 72.68 0 70.92 0 70.92-17.33Q70.92-21.36 69.08-24.48 67.23-27.59 64.04-29.25 60.84-30.91 56.86-30.91L56.86-30.91Q53.07-30.91 49.95-29.11 46.82-27.32 45.05-24.27 43.28-21.22 43.28-17.58L43.28-17.58Q43.28-14.45 44.43-11.88 45.58-9.3 47.52-7.64 49.46-5.98 51.94-5.07 54.42-4.15 57.13-4.15L57.13-4.15Q59.89-4.15 62.55-5.3L62.55-5.3 62.55-3.52Q59.76-2.47 57.08-2.47L57.08-2.47Q52.85-2.47 49.31-4.37 45.77-6.27 43.65-9.77 41.53-13.26 41.53-17.58L41.53-17.58Q41.53-20.65 42.71-23.44 43.89-26.22 45.92-28.25 47.95-30.27 50.8-31.47 53.66-32.67 56.86-32.67L56.86-32.67Q61.33-32.67 64.93-30.76 68.53-28.86 70.6-25.34 72.68-21.83 72.68-17.33ZM76.19-17.33L76.19-17.33 76.19 0 74.44 0 74.44-17.33Q74.44-22.31 72.12-26.23 69.8-30.15 65.79-32.29 61.79-34.42 56.86-34.42L56.86-34.42Q52.12-34.42 48.19-32.15 44.26-29.88 42.01-26.01 39.77-22.14 39.77-17.58L39.77-17.58Q39.77-14.58 40.73-11.88 41.7-9.18 43.37-7.17 45.04-5.15 47.23-3.69 49.41-2.22 51.94-1.46 54.47-0.71 57.08-0.71L57.08-0.71Q59.96-0.71 62.55-1.81L62.55-1.81 62.55 0Q59.84 0.95 56.98 0.95L56.98 0.95Q54.03 0.95 51.23 0.12 48.44-0.71 46.05-2.33 43.67-3.96 41.87-6.16 40.06-8.37 39.04-11.33 38.01-14.28 38.01-17.58L38.01-17.58Q38.01-21.36 39.44-24.79 40.87-28.22 43.34-30.73 45.82-33.23 49.35-34.7 52.88-36.18 56.86-36.18L56.86-36.18Q60.91-36.18 64.48-34.81 68.04-33.45 70.63-31.02 73.22-28.59 74.7-25.05 76.19-21.51 76.19-17.33ZM86.76 0L86.76-25.42 88.52-25.42 88.52 0 86.76 0ZM106.1-33.4L79.73-33.4 79.73-35.16 106.1-35.16 106.1-33.4ZM106.1-29.88L79.73-29.88 79.73-31.64 106.1-31.64 106.1-29.88ZM106.1-26.37L79.73-26.37 79.73-28.13 106.1-28.13 106.1-26.37ZM97.31 0L97.31-25.42 99.07-25.42 99.07 0 97.31 0ZM93.79 0L93.79-25.42 95.55-25.42 95.55 0 93.79 0ZM90.28 0L90.28-25.42 92.04-25.42 92.04 0 90.28 0ZM123.23-15.04L123.23-16.8 133.83-16.8Q135.93-16.8 137.39-18.12 138.86-19.43 138.86-21.83L138.86-21.83Q138.86-23.58 137.33-24.98 135.81-26.37 133.83-26.37L133.83-26.37 118.74-26.37 118.74 0 116.98 0 116.98-28.13 133.83-28.13Q136.54-28.13 138.58-26.22 140.62-24.32 140.62-21.83L140.62-21.83Q140.62-18.73 138.64-16.88 136.66-15.04 133.83-15.04L133.83-15.04 123.23-15.04ZM123.23-11.52L123.23-13.28 133.83-13.28Q137.35-13.28 139.86-15.67 142.38-18.07 142.38-21.83L142.38-21.83Q142.38-25.02 139.81-27.45 137.25-29.88 133.83-29.88L133.83-29.88 115.23-29.88 115.23 0 113.47 0 113.47-31.64 133.83-31.64Q137.98-31.64 141.06-28.7 144.13-25.76 144.13-21.83L144.13-21.83Q144.13-17.43 141.09-14.48 138.05-11.52 133.83-11.52L133.83-11.52 123.23-11.52ZM123.23-8.01L123.23-9.77 133.83-9.77Q137.08-9.77 139.84-11.33 142.6-12.89 144.24-15.67 145.89-18.46 145.89-21.83L145.89-21.83Q145.89-24.88 144.26-27.55 142.62-30.22 139.82-31.81 137.03-33.4 133.83-33.4L133.83-33.4 111.71-33.4 111.71 0 109.95 0 109.95-35.16 133.83-35.16Q136.59-35.16 139.14-34.07 141.69-32.98 143.55-31.19 145.4-29.39 146.53-26.93 147.65-24.46 147.65-21.83L147.65-21.83Q147.65-17.55 145.7-14.37 143.74-11.18 140.45-9.52L140.45-9.52 144.13 0 142.25 0 138.76-8.81Q138.1-8.59 137.22-8.37L137.22-8.37 140.52 0 138.64 0 135.42-8.08Q134.66-8.01 133.83-8.01L133.83-8.01 136.93 0 135.08 0 132-8.01 130.41-8.01 133.37 0 131.51 0 128.53-8.01 123.23-8.01ZM122.26-22.85L122.26 0 120.5 0 120.5-24.61 133.83-24.61Q135.2-24.61 136.15-23.79 137.1-22.97 137.1-21.83L137.1-21.83Q137.1-18.55 133.83-18.55L133.83-18.55 123.23-18.55 123.23-20.31 133.83-20.31Q135.34-20.31 135.34-21.83L135.34-21.83Q135.34-22.24 134.89-22.55 134.44-22.85 133.83-22.85L133.83-22.85 122.26-22.85ZM176.48 0L176.48-17.33Q176.48-20.46 174.55-22.17 172.62-23.88 169.45-23.88L169.45-23.88Q166.76-23.88 164.83-22.02 162.91-20.17 162.91-17.58L162.91-17.58Q162.91-16.11 163.3-14.95 163.69-13.79 164.36-13.02 165.03-12.26 165.96-11.76 166.88-11.25 167.9-11.04 168.91-10.82 170.06-10.82L170.06-10.82Q172.84-10.82 175.14-12.18L175.14-12.18 175.14-10.42Q172.77-9.18 170.03-9.18L170.03-9.18Q168.28-9.18 166.73-9.66 165.18-10.13 163.91-11.1 162.64-12.06 161.89-13.73 161.15-15.41 161.15-17.58L161.15-17.58Q161.15-20.95 163.52-23.29 165.88-25.63 169.45-25.63L169.45-25.63Q173.38-25.63 175.81-23.43 178.24-21.22 178.24-17.33L178.24-17.33 178.24 0 176.48 0ZM181.75-17.33L181.75-17.33 181.75 0 179.99 0 179.99-17.33Q179.99-21.95 177.04-24.67 174.09-27.39 169.45-27.39L169.45-27.39Q165.15-27.39 162.27-24.54 159.39-21.68 159.39-17.58L159.39-17.58Q159.39-15.09 160.26-13.11 161.12-11.13 162.61-9.94 164.1-8.74 165.94-8.12 167.79-7.5 169.84-7.5L169.84-7.5Q172.62-7.5 175.14-8.79L175.14-8.79 175.14-6.93Q172.5-5.83 169.81-5.83L169.81-5.83Q167.4-5.83 165.22-6.58 163.05-7.32 161.34-8.75 159.63-10.18 158.63-12.46 157.63-14.75 157.63-17.58L157.63-17.58Q157.63-22.39 161.04-25.77 164.44-29.15 169.45-29.15L169.45-29.15Q172.96-29.15 175.75-27.72 178.53-26.29 180.14-23.58 181.75-20.87 181.75-17.33ZM185.27-17.33L185.27-17.33 185.27 0 183.51 0 183.51-17.33Q183.51-21.36 181.67-24.48 179.82-27.59 176.63-29.25 173.43-30.91 169.45-30.91L169.45-30.91Q165.66-30.91 162.54-29.11 159.41-27.32 157.64-24.27 155.87-21.22 155.87-17.58L155.87-17.58Q155.87-14.45 157.02-11.88 158.17-9.3 160.11-7.64 162.05-5.98 164.53-5.07 167.01-4.15 169.72-4.15L169.72-4.15Q172.48-4.15 175.14-5.3L175.14-5.3 175.14-3.52Q172.35-2.47 169.67-2.47L169.67-2.47Q165.44-2.47 161.9-4.37 158.36-6.27 156.24-9.77 154.12-13.26 154.12-17.58L154.12-17.58Q154.12-20.65 155.3-23.44 156.48-26.22 158.51-28.25 160.54-30.27 163.39-31.47 166.25-32.67 169.45-32.67L169.45-32.67Q173.92-32.67 177.52-30.76 181.12-28.86 183.19-25.34 185.27-21.83 185.27-17.33ZM188.78-17.33L188.78-17.33 188.78 0 187.03 0 187.03-17.33Q187.03-22.31 184.71-26.23 182.39-30.15 178.38-32.29 174.38-34.42 169.45-34.42L169.45-34.42Q164.71-34.42 160.78-32.15 156.85-29.88 154.6-26.01 152.36-22.14 152.36-17.58L152.36-17.58Q152.36-14.58 153.32-11.88 154.29-9.18 155.96-7.17 157.63-5.15 159.82-3.69 162-2.22 164.53-1.46 167.06-0.71 169.67-0.71L169.67-0.71Q172.55-0.71 175.14-1.81L175.14-1.81 175.14 0Q172.43 0.95 169.57 0.95L169.57 0.95Q166.62 0.95 163.82 0.12 161.03-0.71 158.64-2.33 156.26-3.96 154.46-6.16 152.65-8.37 151.63-11.33 150.6-14.28 150.6-17.58L150.6-17.58Q150.6-21.36 152.03-24.79 153.46-28.22 155.93-30.73 158.41-33.23 161.94-34.7 165.47-36.18 169.45-36.18L169.45-36.18Q173.5-36.18 177.07-34.81 180.63-33.45 183.22-31.02 185.81-28.59 187.29-25.05 188.78-21.51 188.78-17.33Z" fill="white"></path></g></svg></g></svg></g><g transform="matrix(1,0,0,1,0,96.5596568822127)"><svg viewBox="0 0 281.808 33.30237519379845" height="33.30237519379845" width="281.808"><g transform="matrix(1,0,0,1,0,0)"><svg width="281.808" viewBox="0.45 -29.75 290.22 34.3" height="33.30237519379845" data-palette-color="#00ff00"></svg></g></svg></g></svg></g></svg></g><g><svg viewBox="0 0 200.8523620855244 179.4693283290474" height="179.4693283290474" width="200.8523620855244"><g><svg xmlns="http://www.w3.org/2000/svg" xmlns:xlink="http://www.w3.org/1999/xlink" version="1.1" x="0" y="0" viewBox="2.7858219717251416 5.816 94.21417802827486 84.184" enable-background="new 0 0 100 100" xml:space="preserve" height="179.4693283290474" width="200.8523620855244" class="icon-icon-0" data-fill-palette-color="accent" id="SvgjsSvg1000"></svg></g></svg></g></svg></g></svg></g></svg></g><defs><mask></mask></defs></svg></g></mask><linearGradient x1="0" x2="1" y1="0.548" y2="0.55" id="6d6ddc96-34af-459a-98a4-d0d58f33d887"><stop stop-color="#ff6cab" offset="0"></stop><stop stop-color="#7366ff" offset="1"></stop></linearGradient><rect width="395.52" height="247.2" fill="url(#6d6ddc96-34af-459a-98a4-d0d58f33d887)" mask="url(#5c588f0b-a937-4723-a1b7-de2dfb0c8e7b)" data-fill-palette-color="primary"></rect></svg><rect width="395.52" height="247.2" fill="none" stroke="none" visibility="hidden"></rect></g></svg></g></svg>